<?xml version="1.0" standalone="no"?>
<!DOCTYPE svg PUBLIC "-//W3C//DTD SVG 20010904//EN"
 "http://www.w3.org/TR/2001/REC-SVG-20010904/DTD/svg10.dtd">
<svg version="1.0" xmlns="http://www.w3.org/2000/svg"
 width="964.000000pt" height="964.000000pt" viewBox="0 0 964.000000 964.000000"
 preserveAspectRatio="xMidYMid meet">
<metadata>
Created by potrace 1.14, written by Peter Selinger 2001-2017
</metadata>
<g transform="translate(0.000000,964.000000) scale(0.100000,-0.100000)"
fill="#000000" stroke="none">
<path d="M3550 9621 l-35 -18 0 -335 -1 -334 105 54 c97 50 277 126 326 138
30 8 35 9 110 31 144 43 325 74 450 77 28 0 53 6 57 11 5 6 8 5 8 -3 0 -8 6
-10 18 -5 38 17 338 0 467 -27 127 -27 118 -25 130 -31 6 -3 30 -12 55 -19 25
-8 67 -27 93 -42 26 -15 50 -28 52 -28 3 0 15 -8 27 -17 153 -124 219 -262
221 -463 1 -106 -8 -163 -37 -226 -14 -30 -23 -54 -20 -54 18 0 -135 -152
-176 -174 -63 -35 -177 -87 -220 -100 -3 -1 -9 -4 -15 -7 -8 -5 -60 -22 -140
-45 -5 -2 -48 -15 -95 -29 -47 -14 -94 -27 -105 -29 -11 -2 -103 -25 -205 -51
-102 -25 -192 -48 -200 -50 -8 -1 -44 -13 -80 -25 -36 -12 -72 -23 -80 -25
-24 -5 -171 -61 -225 -86 -27 -12 -56 -23 -63 -25 -8 -1 -21 -8 -30 -16 -10
-7 -35 -22 -57 -33 -85 -42 -194 -123 -275 -206 -47 -47 -90 -93 -97 -102 -18
-23 -113 -190 -113 -198 0 -4 -5 -20 -12 -36 -6 -15 -12 -30 -13 -33 -18 -59
-32 -114 -41 -160 -2 -14 -7 -31 -9 -38 -9 -25 -19 -199 -18 -302 2 -98 5
-135 18 -202 3 -16 7 -38 9 -50 35 -198 146 -411 292 -564 63 -65 168 -154
181 -154 6 0 13 -4 15 -8 2 -4 32 -26 68 -48 56 -35 89 -52 205 -105 39 -18
169 -59 187 -59 10 0 18 -4 18 -8 0 -4 16 -9 37 -10 20 -2 41 -6 47 -9 6 -4
17 -8 26 -8 15 -2 87 -14 125 -21 11 -2 49 -7 85 -10 36 -3 79 -7 95 -9 34 -5
332 -5 385 -1 119 10 208 19 225 22 11 2 38 6 60 9 22 3 51 7 65 10 14 3 40 8
59 11 18 3 43 8 55 11 11 2 31 6 43 8 11 2 30 6 42 10 11 3 33 8 48 11 38 7
203 50 288 76 79 24 84 26 105 31 8 2 22 6 30 9 8 3 44 16 80 28 36 13 70 28
75 35 8 9 13 623 6 711 -1 12 -31 15 -31 3 0 -9 -298 -159 -316 -159 -8 0 -14
-4 -14 -10 0 -5 -6 -10 -13 -10 -7 0 -49 -15 -94 -34 -45 -19 -84 -32 -87 -29
-3 4 -6 0 -6 -7 0 -7 -3 -11 -6 -7 -4 3 -23 -1 -43 -9 -20 -8 -88 -29 -151
-46 -108 -29 -131 -34 -190 -42 -14 -2 -38 -6 -55 -10 -16 -3 -48 -8 -70 -11
-22 -2 -65 -7 -95 -11 -105 -13 -363 -7 -495 11 -288 40 -519 187 -602 383
-71 167 -63 410 19 561 16 29 35 59 41 66 7 6 26 27 42 46 65 73 209 149 400
210 50 16 97 32 105 36 8 3 20 7 25 8 6 2 45 12 88 24 43 13 86 24 95 26 42 8
454 116 517 136 130 40 342 131 357 153 4 6 8 8 8 3 0 -20 185 117 258 192 62
63 132 157 152 203 6 13 14 30 19 38 34 58 69 169 96 310 24 124 24 355 0 524
-26 180 -115 393 -220 526 -39 49 -181 187 -213 205 -18 11 -32 23 -32 27 0 4
-5 8 -11 8 -5 0 -27 11 -47 25 l-37 25 -1045 0 c-1002 0 -1047 -1 -1080 -19z"/>
<path d="M7788 7135 c-3 -2 -99 -13 -183 -20 -37 -3 -69 -8 -135 -20 -14 -3
-39 -7 -57 -10 -18 -3 -63 -12 -100 -21 -37 -8 -77 -16 -88 -18 -11 -2 -21 -5
-22 -6 -2 -1 -12 -4 -23 -5 -11 -1 -22 -4 -25 -5 -3 -1 -9 -4 -15 -5 -5 -1
-11 -3 -12 -5 -2 -1 -12 -3 -23 -5 -11 -1 -65 -17 -120 -34 -55 -17 -107 -33
-115 -36 -8 -2 -49 -16 -90 -30 -129 -45 -115 -8 -113 -303 0 -141 2 -271 2
-288 l1 -30 103 51 c56 28 120 58 142 67 22 9 58 24 80 33 22 9 47 18 55 20 8
2 51 15 95 29 76 24 138 41 195 51 14 3 36 8 50 11 14 3 36 8 50 10 14 2 39 6
55 9 50 8 107 15 170 21 85 7 378 11 390 5 5 -3 33 -6 61 -7 29 -1 61 -5 72
-8 11 -4 37 -9 57 -11 88 -12 345 -115 385 -155 3 -3 28 -23 55 -45 71 -56
121 -111 166 -180 41 -62 94 -188 104 -245 3 -18 8 -36 10 -40 5 -8 17 -136
19 -209 2 -68 7 -64 -84 -62 -66 1 -109 1 -265 0 -66 0 -129 0 -140 0 -11 1
-45 1 -75 1 -30 0 -75 0 -100 0 -25 0 -105 -1 -178 -3 -72 -1 -132 2 -132 6 0
5 -6 5 -12 0 -7 -4 -35 -8 -63 -9 -70 -3 -220 -13 -220 -15 0 -1 -13 -3 -30
-4 -52 -4 -139 -16 -145 -20 -3 -2 -26 -6 -50 -10 -25 -3 -53 -8 -62 -11 -9
-3 -25 -6 -35 -8 -33 -7 -208 -59 -223 -67 -8 -4 -42 -18 -75 -30 -33 -12 -72
-31 -87 -41 -14 -10 -29 -18 -34 -18 -10 0 -97 -55 -154 -98 -131 -97 -269
-270 -325 -410 -15 -37 -31 -76 -36 -87 -15 -36 -49 -184 -55 -237 -2 -29 -7
-66 -9 -83 -11 -76 -5 -326 9 -395 3 -14 11 -50 17 -80 64 -323 294 -616 597
-758 42 -20 79 -36 82 -37 3 0 34 -11 70 -23 78 -26 153 -44 200 -48 19 -1 35
-3 35 -4 0 -21 516 -16 615 6 28 6 49 10 95 19 22 5 42 9 45 10 137 41 271 92
281 107 3 6 9 9 13 9 9 -2 100 52 104 61 2 4 8 8 14 8 18 0 144 107 213 180
67 71 99 110 144 177 24 35 46 65 49 67 4 2 7 -124 7 -280 l-1 -284 268 0 268
0 0 1451 0 1451 -26 76 c-36 106 -134 309 -169 348 -5 7 -19 25 -30 40 -69 98
-194 214 -310 290 -75 49 -232 126 -285 140 -8 2 -41 12 -72 23 -31 11 -70 22
-85 25 -15 2 -59 12 -98 20 -38 8 -95 18 -125 22 -30 3 -71 8 -90 10 -37 5
-438 12 -442 9z m1195 -2110 c-1 -120 -9 -261 -18 -306 -3 -13 -8 -40 -11 -59
-4 -19 -9 -44 -11 -55 -2 -11 -6 -30 -9 -42 -2 -12 -9 -34 -14 -48 -5 -14 -7
-25 -4 -25 4 0 1 -7 -6 -15 -6 -8 -9 -19 -6 -24 4 -5 2 -12 -3 -15 -5 -3 -12
-18 -15 -32 -14 -53 -112 -244 -149 -289 -4 -5 -19 -26 -32 -45 -55 -75 -218
-230 -244 -230 -6 0 -11 -4 -11 -9 0 -5 -14 -14 -31 -21 -17 -7 -36 -18 -42
-25 -24 -23 -193 -86 -272 -101 -11 -2 -31 -6 -45 -9 -156 -31 -350 -25 -514
15 -75 19 -216 79 -242 104 -6 6 -22 18 -34 26 -105 68 -211 238 -235 375 -2
11 -4 20 -5 20 -12 0 -16 215 -6 303 8 72 51 209 72 233 8 8 14 20 14 25 0 38
140 167 229 211 42 21 78 41 79 46 2 4 8 5 13 2 5 -3 17 -1 27 4 20 11 156 47
207 55 17 3 48 9 70 13 22 4 55 7 73 8 17 0 32 2 32 5 0 3 12 6 28 6 55 2 216
15 218 17 2 1 204 2 451 2 l448 0 -2 -120z"/>
<path d="M1557 7063 c-1 0 -47 -4 -102 -8 -126 -9 -172 -13 -210 -19 -16 -2
-55 -7 -85 -10 -30 -3 -66 -8 -80 -11 -14 -3 -36 -7 -50 -9 -40 -7 -115 -20
-120 -21 -7 -2 -93 -18 -110 -21 -8 -1 -46 -10 -85 -19 -68 -15 -85 -19 -153
-31 -18 -4 -35 -11 -39 -17 -10 -16 -10 -540 0 -554 6 -9 18 -8 50 3 37 13
175 51 217 59 8 2 33 8 55 14 22 5 56 13 75 16 19 3 42 8 50 10 16 5 73 16
105 20 11 2 20 4 20 5 0 1 14 3 31 5 16 2 48 6 70 10 21 4 57 9 79 11 22 2 74
7 115 11 98 9 380 9 450 0 83 -11 119 -17 175 -32 99 -25 201 -70 281 -126 61
-42 145 -126 164 -164 8 -17 19 -33 25 -37 5 -4 6 -8 2 -8 -4 0 -2 -10 5 -22
17 -31 19 -42 22 -123 7 -186 -99 -338 -311 -444 -44 -23 -88 -41 -95 -41 -8
0 -18 -3 -22 -7 -3 -4 -14 -8 -24 -9 -9 -1 -28 -5 -42 -9 -27 -7 -53 -12 -86
-19 -65 -13 -212 -20 -479 -21 -165 -1 -305 -3 -310 -4 -11 -1 -16 -510 -5
-512 3 0 154 -2 335 -4 330 -3 396 -6 490 -25 28 -6 59 -12 70 -14 41 -8 177
-57 223 -80 94 -48 252 -181 252 -213 0 -7 4 -13 8 -13 5 0 21 -22 36 -50 15
-27 24 -50 20 -50 -5 0 -3 -5 4 -12 7 -7 12 -22 12 -35 0 -13 4 -23 8 -23 8 0
13 -42 16 -145 2 -47 -12 -142 -24 -175 -15 -37 -20 -52 -20 -56 0 -20 -92
-143 -140 -187 -49 -44 -188 -139 -210 -143 -3 0 -21 -8 -40 -16 -39 -17 -70
-29 -85 -34 -24 -9 -162 -44 -185 -48 -14 -2 -25 -5 -25 -6 0 -1 -16 -3 -35
-5 -19 -1 -71 -6 -115 -11 -87 -9 -373 -9 -445 0 -25 3 -72 7 -105 10 -232 20
-541 105 -737 202 -26 13 -51 24 -55 24 -6 0 -8 -307 -4 -541 l1 -36 97 -29
c54 -15 103 -29 108 -30 6 -1 30 -7 55 -14 25 -7 50 -13 57 -14 7 -1 15 -5 19
-8 3 -4 12 -4 20 -1 8 3 21 0 29 -7 8 -7 15 -10 15 -8 0 3 21 1 48 -4 26 -5
58 -11 72 -14 28 -4 89 -16 105 -19 6 -1 33 -5 60 -9 28 -3 61 -8 75 -11 130
-24 762 -23 803 2 4 2 32 6 62 8 30 2 62 6 72 9 10 3 31 7 47 10 24 4 128 26
146 31 3 1 25 7 50 14 25 7 50 14 55 15 18 3 129 48 195 79 36 17 68 31 72 31
3 1 49 29 102 64 319 209 481 524 477 927 -2 112 -8 163 -32 260 -10 41 -12
46 -49 130 -21 47 -82 146 -105 171 -5 6 -31 34 -57 62 -26 28 -64 63 -85 79
-21 15 -40 30 -43 33 -53 54 -333 175 -447 194 -15 2 -30 5 -33 6 -3 1 -9 2
-15 0 -7 -1 -7 2 0 8 6 6 54 22 108 37 53 15 97 31 97 36 0 5 7 6 15 3 8 -4
15 -1 15 5 0 6 7 11 15 11 17 0 122 55 146 76 8 8 19 14 23 14 11 0 32 18 116
100 69 67 139 160 138 184 0 5 4 12 9 15 14 9 52 118 68 192 31 141 6 398 -51
525 -9 21 -18 41 -19 44 -3 13 -38 73 -66 115 -31 46 -179 200 -179 187 0 -4
-4 -2 -8 3 -14 19 -128 92 -197 126 -38 19 -72 36 -75 39 -3 3 -14 7 -25 8
-11 2 -23 8 -26 14 -3 5 -10 9 -15 9 -5 -1 -34 6 -64 15 -162 48 -189 55 -240
61 -54 6 -85 11 -85 13 0 9 -498 33 -508 23z"/>
<path d="M3854 4979 c-2 -3 -2 -21 1 -40 2 -19 6 -57 10 -84 5 -40 31 -154 49
-210 53 -166 166 -320 305 -414 65 -44 181 -101 211 -103 3 0 12 -4 21 -9 9
-4 27 -10 40 -13 13 -3 49 -10 79 -16 195 -39 478 -31 654 20 260 75 441 232
542 470 18 44 31 80 28 80 -2 0 0 8 5 19 6 10 13 33 16 52 3 19 9 43 12 54 9
28 12 50 19 130 l5 70 -181 -1 c-99 0 -185 -5 -190 -10 -5 -5 -11 -24 -15 -42
-8 -45 -45 -144 -61 -163 -8 -8 -14 -21 -14 -27 0 -7 -28 -40 -62 -75 -74 -72
-163 -120 -270 -144 -75 -16 -304 -23 -363 -10 -16 4 -48 11 -70 15 -199 44
-328 175 -382 387 l-18 70 -183 0 c-101 0 -186 -3 -188 -6z"/>
<path d="M3316 3581 c-1 -3 -2 -809 -2 -1791 l1 -1785 380 0 379 0 73 120 c41
66 78 129 83 140 6 11 42 72 81 135 39 63 79 129 87 145 9 17 20 35 24 40 5 6
139 228 298 495 160 267 295 492 300 500 6 8 16 25 23 36 23 40 62 107 72 123
6 9 37 61 70 116 33 55 63 102 67 103 5 2 8 8 8 14 0 12 72 132 83 136 4 2 7
8 7 13 0 8 188 328 200 339 3 3 16 25 29 50 14 25 28 47 31 50 4 3 9 10 11 16
2 6 42 75 89 153 77 128 86 139 90 114 3 -15 3 -30 -1 -33 -3 -3 -4 -14 -2
-25 2 -11 4 -24 4 -30 0 -15 -1 -107 -1 -127 0 -10 0 -29 0 -43 0 -14 0 -32 0
-40 1 -8 1 -44 1 -80 0 -36 0 -72 0 -80 0 -8 0 -44 0 -80 0 -36 0 -72 0 -80 0
-8 0 -44 0 -80 0 -36 -1 -73 -1 -82 0 -72 1 -117 4 -121 2 -2 0 -17 -4 -33 -5
-16 -5 -29 0 -29 5 0 5 -12 1 -27 -7 -30 -6 -91 3 -100 2 -3 1 -16 -4 -29 -6
-16 -6 -24 1 -24 6 0 6 -6 0 -18 -5 -10 -6 -24 -1 -31 4 -8 5 -25 1 -40 -7
-28 -6 -90 3 -98 2 -3 1 -16 -4 -29 -6 -16 -6 -24 1 -24 6 0 6 -6 0 -18 -6
-10 -6 -24 -1 -32 5 -8 6 -18 4 -22 -5 -8 -6 -46 -4 -143 0 -22 -1 -54 -3 -71
-2 -18 0 -40 4 -50 3 -11 3 -29 -2 -41 -5 -15 -5 -23 2 -23 6 0 6 -6 0 -18 -5
-10 -6 -24 -1 -31 4 -8 5 -25 1 -40 -7 -28 -6 -90 3 -98 2 -3 1 -16 -4 -29 -6
-16 -6 -24 1 -24 6 0 6 -6 0 -18 -5 -10 -6 -24 -1 -31 4 -8 5 -25 1 -40 -3
-14 -5 -37 -4 -51 3 -40 4 -61 4 -132 0 -38 0 -75 0 -83 0 -8 0 -44 0 -80 0
-36 0 -72 0 -80 0 -69 0 -153 0 -165 0 -8 0 -20 -1 -25 -1 -6 -2 -34 -1 -63
l1 -52 293 2 292 3 1 1780 c0 979 -1 1785 -3 1791 -3 8 -111 11 -376 9 -205
-1 -375 -3 -380 -3 -4 -1 -15 -18 -24 -37 -9 -19 -20 -35 -25 -35 -4 0 -8 -4
-8 -9 0 -9 -99 -180 -110 -191 -3 -3 -10 -14 -16 -25 -6 -11 -97 -164 -203
-340 -106 -176 -196 -327 -201 -335 -5 -8 -45 -75 -90 -148 -44 -73 -80 -135
-80 -137 0 -2 -12 -23 -27 -47 -16 -24 -33 -52 -40 -63 -6 -11 -37 -62 -67
-112 -31 -51 -56 -97 -56 -103 0 -5 -3 -10 -8 -10 -4 0 -22 -26 -40 -57 -18
-32 -37 -65 -42 -73 -26 -41 -167 -277 -173 -290 -4 -8 -32 -55 -62 -104 -30
-49 -55 -93 -55 -97 0 -5 -4 -9 -9 -9 -5 0 -11 -8 -15 -17 -3 -10 -11 -27 -18
-38 -43 -66 -78 -127 -78 -135 0 -6 -4 -10 -10 -10 -5 0 -10 -4 -10 -10 0 -5
-21 -42 -46 -81 -25 -40 -49 -79 -52 -88 -3 -9 -10 -20 -15 -26 -12 -14 -81
-130 -109 -182 -12 -24 -25 -43 -29 -43 -4 0 -7 639 -7 1419 0 781 -2 1424 -6
1429 -6 10 -575 13 -580 3z"/>
</g>
</svg>
