<svg width="273" height="370" viewBox="0 0 273 370" fill="none" xmlns="http://www.w3.org/2000/svg">
<path d="M37.2366 342.87C12.4173 324.975 0 299.488 0 266.443C0 244.413 5.59008 226.976 16.755 214.114C27.9198 201.268 41.3604 191.863 57.0921 185.881C72.8084 179.916 93.7025 173.951 119.774 167.986C140.867 162.936 157.622 158.344 170.039 154.209C182.441 150.074 192.781 143.889 201.059 135.619C209.338 127.35 213.461 116.335 213.461 102.575C213.461 82.8493 206.115 67.6995 191.437 57.1421C176.744 46.5847 155.758 41.2976 128.45 41.2976C110.244 41.2976 91.8391 44.3987 73.2208 50.601C54.6025 56.8032 38.2599 64.717 24.1931 74.3593L8.67531 37.1797C25.2164 26.1647 44.1402 17.2172 65.4619 10.3201C86.7683 3.44005 107.968 0 129.06 0C168.771 0 200.311 9.06614 223.695 27.1984C247.063 45.3307 258.762 71.1565 258.762 104.659C258.762 127.146 253.065 145.058 241.702 158.361C230.323 171.681 216.577 181.323 200.433 187.271C184.304 193.236 163.197 199.218 137.14 205.166C116.048 209.758 99.3842 214.232 87.1807 218.587C74.9773 222.959 64.8357 229.026 56.7713 236.838C48.707 244.65 44.6748 255.208 44.6748 268.51C44.6748 287.795 52.7391 302.589 68.8832 312.926C85.0119 323.246 106.945 328.415 134.666 328.415C158.248 328.415 180.486 324.517 201.38 316.705C222.259 308.91 240.572 299.268 256.303 287.795L272.432 322.907C254.639 337.142 233.745 348.496 209.75 356.986C185.755 365.493 160.722 369.729 134.666 369.729C94.5272 369.729 62.0559 360.782 37.2366 342.887V342.87Z" fill="#EEEEEE"/>
</svg>
