<svg width="292" height="370" viewBox="0 0 292 370" fill="none" xmlns="http://www.w3.org/2000/svg">
<path d="M271.843 208.232C285.209 222.896 291.892 240.775 291.892 261.833C291.892 282.891 284.982 301.683 271.18 318.191C257.377 334.683 238.639 347.402 214.966 356.333C191.293 365.264 165.209 369.729 136.731 369.729C111.747 369.729 87.2001 365.957 63.1064 358.397C38.9965 350.836 17.9611 339.74 0 325.059L15.7766 288.642C31.5532 301.007 49.9674 310.631 71.0028 317.498C92.0383 324.365 113.3 327.799 134.773 327.799C166.763 327.799 192.96 321.507 213.332 308.906C233.704 296.304 243.898 279.255 243.898 257.706C243.898 238.458 235.565 223.472 218.915 212.697C202.248 201.94 179.465 196.544 150.549 196.544H91.3748V160.804H147.912C173.769 160.804 194.594 155.645 210.371 145.344C226.148 135.044 234.044 121.191 234.044 103.769C234.044 84.5207 225.177 69.4162 207.41 58.4219C189.659 47.4277 166.536 41.9305 138.057 41.9305C100.792 41.9305 63.9802 51.7915 27.605 71.4798L14.4497 33.6763C55.6469 11.2311 98.3813 0 142.653 0C168.947 0 192.717 4.00869 213.979 12.0261C235.225 20.0434 251.876 31.3929 263.947 46.0407C276.002 60.7054 282.021 77.6535 282.021 96.9019C282.021 116.15 275.985 131.492 263.947 145.7C251.892 159.908 235.565 170.445 214.966 177.312C239.513 183.266 258.461 193.584 271.827 208.232H271.843Z" fill="#EEEEEE"/>
</svg>
