<svg width="331" height="487" viewBox="0 0 331 487" fill="none" xmlns="http://www.w3.org/2000/svg">
<path d="M0 136.9H48.4314V414.707L287.835 136.9H330.81V486.486H282.379V208.679L43.6638 486.486H0.0168037V136.9H0ZM89.342 63.7961C71.1446 48.7304 61.8276 27.465 61.3744 0H96.1577C96.6109 17.274 102.973 31.1292 115.262 41.5329C127.533 51.9529 143.448 57.1547 163.005 57.1547C182.562 57.1547 198.577 51.9529 211.083 41.5329C223.59 31.1292 230.07 17.274 230.523 0H265.306C264.853 27.4814 255.419 48.7467 237.003 63.7961C218.587 78.8618 193.91 86.3864 163.005 86.3864C132.099 86.3864 107.523 78.8618 89.342 63.7961Z" fill="#EEEEEE"/>
</svg>
