<svg width="351" height="370" viewBox="0 0 351 370" fill="none" xmlns="http://www.w3.org/2000/svg">
<path d="M350.27 2.72172V366.259H305.578V294.389C291.555 318.816 273.05 337.477 250.049 350.371C227.049 363.282 201.088 369.729 172.167 369.729C139.736 369.729 110.394 361.904 84.11 346.237C57.8256 330.57 37.2187 308.695 22.3377 280.576C7.4405 252.474 0 220.443 0 184.516C0 148.589 7.4405 116.558 22.3377 88.4561C37.2349 60.3543 57.8256 38.5804 84.11 23.1517C110.394 7.7229 139.752 0 172.167 0C200.198 0 225.496 6.10688 248.076 18.3206C270.64 30.5344 289.145 48.3787 303.605 71.8876V2.77277H350.27V2.72172ZM241.509 308.542C261 296.787 276.334 280.1 287.511 258.428C298.688 236.773 304.268 212.124 304.268 184.482C304.268 156.839 298.688 132.191 287.511 110.536C276.334 88.8813 261 72.1767 241.509 60.4223C222.002 48.6678 200.214 42.7991 176.114 42.7991C152.013 42.7991 129.562 48.6678 110.071 60.4223C90.5639 72.1767 75.2462 88.8813 64.0692 110.536C52.8923 132.191 47.3119 156.839 47.3119 184.482C47.3119 212.124 52.8923 236.79 64.0692 258.428C75.2462 280.1 90.5639 296.787 110.071 308.542C129.562 320.296 151.576 326.165 176.114 326.165C200.651 326.165 222.002 320.296 241.509 308.542Z" fill="#EEEEEE"/>
</svg>
