<svg width="167" height="205" viewBox="0 0 167 205" fill="none" xmlns="http://www.w3.org/2000/svg">
<path d="M22.7975 190.173C7.60229 180.299 0 166.235 0 148C0 135.844 3.42243 126.222 10.2579 119.125C17.0935 112.037 25.3223 106.847 34.9537 103.546C44.5758 100.255 57.3678 96.9632 73.3298 93.6717C86.2434 90.8851 96.5014 88.351 104.104 86.0694C111.697 83.7878 118.027 80.3747 123.095 75.8115C128.164 71.2482 130.688 65.1701 130.688 57.5772C130.688 46.6927 126.191 38.333 117.204 32.5074C108.209 26.6818 95.3606 23.7643 78.6412 23.7643C67.4949 23.7643 56.227 25.4755 44.8283 28.898C33.4295 32.3204 23.424 36.6873 14.8118 42.0079L5.31132 21.492C15.4384 15.4139 27.0241 10.4767 40.078 6.67084C53.1225 2.87437 66.1016 0.976143 79.0152 0.976143C103.328 0.976143 122.637 5.97888 136.953 15.9843C151.26 25.9898 158.423 40.2406 158.423 58.7274C158.423 71.136 154.935 81.0199 147.978 88.3604C141.012 95.7102 132.596 101.031 122.712 104.313C112.837 107.605 99.9145 110.905 83.9618 114.188C71.0482 116.722 60.8464 119.19 53.375 121.594C45.9036 124.006 39.6946 127.354 34.7573 131.664C29.8201 135.975 27.3514 141.801 27.3514 149.141C27.3514 159.783 32.2887 167.946 42.1726 173.65C52.0472 179.345 65.4751 182.197 82.447 182.197C96.8848 182.197 110.5 180.046 123.292 175.735C136.074 171.434 147.286 166.113 156.918 159.783L166.792 179.158C155.898 187.012 143.106 193.278 128.416 197.962C113.726 202.657 98.3996 204.994 82.447 204.994C57.8728 204.994 37.9927 200.057 22.7975 190.182V190.173Z" fill="#151515"/>
</svg>
