<svg width="186" height="217" viewBox="0 0 186 217" fill="none" xmlns="http://www.w3.org/2000/svg">
<path d="M104.618 0C109.258 0 113.868 0.4 118.388 1.12C132.858 3.44 147.118 10.35 155.138 24.24C156.288 26.24 157.238 28.27 158.008 30.31C166.988 34.08 174.988 40.22 180.278 49.38C188.058 62.86 186.748 77.81 180.118 88.55C173.488 99.29 163.038 106.89 152.338 113.02C125.878 127.99 92.4677 133.86 68.7777 147.16C59.7077 152.35 51.9277 158.77 48.3677 164.54C47.1177 166.56 46.2077 168.37 45.7377 170.21C56.2577 171.83 69.4877 170.71 82.2377 168.21C108.018 163.14 131.388 152.87 131.388 152.87L144.268 147.55L164.308 195.6L164.958 197.05C164.958 197.05 140.068 208.17 111.408 213.81C97.0777 216.62 81.6977 218.19 67.2277 215.87C52.7577 213.55 38.4977 206.62 30.4777 192.73C29.3277 190.74 28.3977 188.71 27.6277 186.68C18.6377 182.9 10.6277 176.75 5.33775 167.59C-2.44225 154.12 -1.13225 139.16 5.49775 128.42C12.1277 117.67 22.5577 110.08 33.2577 103.95C59.7577 88.98 93.0777 83.16 116.838 69.81C125.908 64.61 133.688 58.2 137.248 52.42C138.498 50.4 139.408 48.59 139.878 46.75C129.358 45.14 116.118 46.25 103.368 48.75C77.5777 53.82 54.2377 64.09 54.2377 64.09L41.3977 69.31L21.2777 21.31L20.6677 19.91C20.6677 19.91 45.5577 8.79 74.2177 3.16C84.0677 1.22 94.4177 0 104.618 0Z" fill="#151515"/>
</svg>
