<svg width="169" height="206" viewBox="0 0 169 206" fill="none" xmlns="http://www.w3.org/2000/svg">
<path d="M157.414 116.086C165.138 124.193 169 134.077 169 145.719C169 157.361 165.007 167.75 157.031 176.876C149.054 185.993 138.226 193.025 124.546 197.962C110.865 202.9 95.7916 205.368 79.334 205.368C64.8962 205.368 50.7109 203.283 36.7874 199.103C22.8545 194.923 10.6984 188.789 0.318848 180.673L9.43598 160.54C18.5531 167.376 29.1945 172.696 41.3506 176.493C53.5068 180.289 65.7939 182.187 78.2025 182.187C96.6893 182.187 111.828 178.709 123.601 171.742C135.374 164.776 141.265 155.35 141.265 143.437C141.265 132.796 136.449 124.511 126.827 118.554C117.196 112.607 104.03 109.624 87.3197 109.624H53.1234V89.8659H85.7955C100.738 89.8659 112.773 87.0139 121.89 81.3192C131.007 75.6244 135.57 67.9661 135.57 58.3346C135.57 47.6933 130.446 39.3429 120.179 33.2648C109.921 27.1867 96.5584 24.1477 80.1008 24.1477C58.5657 24.1477 37.2923 29.5993 16.2715 40.4837L8.6692 19.5845C32.4766 7.1758 57.1723 0.966797 82.7564 0.966797C97.9517 0.966797 111.688 3.18296 123.975 7.61529C136.253 12.0476 145.875 18.3221 152.851 26.42C159.817 34.5272 163.296 43.8968 163.296 54.5381C163.296 65.1795 159.808 73.6608 152.851 81.5155C145.884 89.3703 136.449 95.1959 124.546 98.9924C138.731 102.284 149.681 107.988 157.405 116.086H157.414Z" fill="#151515"/>
</svg>
