<svg width="197" height="214" viewBox="0 0 197 214" fill="none" xmlns="http://www.w3.org/2000/svg">
<g clip-path="url(#clip0_62_165)">
<path d="M196.28 134.98C196.28 185.01 136.35 213.33 65.98 213.33C16.77 213.33 0 202.06 0 184.74C0 175.94 4.67 167.7 25.29 169.62L146.25 180.34C162.2 181.72 169.34 174.29 169.34 166.59C169.34 158.89 163.02 153.12 146.25 150.92L47.84 138.82C26.95 136.35 19.8 123.7 19.8 110.5C19.8 100.33 23.65 87.41 47.84 79.71L155.05 45.62C167.97 41.5 170.17 36 170.17 29.13C169.9 20.33 161.65 18.96 154.78 20.88L58.84 49.19C39.31 54.98 2.47 67.63 0.28 30.51C-1.1 8.52 16.77 0 39.59 0H141.58C170.72 0 185.29 13.47 185.29 31.61C185.29 41.78 178.14 51.95 165.77 60.75L83.85 117.65C72.85 125.35 78.35 135.52 91 130.3L145.98 107.76C172.92 96.76 196.29 109.96 196.29 134.97L196.28 134.98Z" fill="#090909"/>
</g>
<defs>
<clipPath id="clip0_62_165">
<rect width="196.28" height="213.32" fill="white"/>
</clipPath>
</defs>
</svg>
