<svg width="203" height="204" viewBox="0 0 203 204" fill="none" xmlns="http://www.w3.org/2000/svg">
<path d="M202.75 2.25776V202.096H176.913V162.588C168.806 176.016 158.109 186.274 144.812 193.362C131.515 200.46 116.506 204.004 99.7869 204.004C81.0383 204.004 64.0758 199.702 48.8806 191.09C33.6853 182.478 21.7723 170.453 13.1695 154.996C4.55727 139.548 0.255859 121.94 0.255859 102.191C0.255859 82.4418 4.55727 64.8341 13.1695 49.3863C21.7816 33.9386 33.6853 21.9695 48.8806 13.4882C64.0758 5.00693 81.0477 0.761612 99.7869 0.761612C115.992 0.761612 130.617 4.11859 143.671 10.8325C156.715 17.5465 167.413 27.3556 175.772 40.2786V2.28581H202.75V2.25776ZM139.874 170.368C151.142 163.907 160.007 154.734 166.468 142.821C172.93 130.917 176.156 117.367 176.156 102.172C176.156 86.977 172.93 73.4275 166.468 61.5238C160.007 49.6201 151.142 40.4375 139.874 33.976C128.597 27.5146 116.001 24.2885 102.069 24.2885C88.1357 24.2885 75.1566 27.5146 63.8888 33.976C52.6116 40.4375 43.7563 49.6201 37.2948 61.5238C30.8333 73.4275 27.6073 86.977 27.6073 102.172C27.6073 117.367 30.8333 130.926 37.2948 142.821C43.7563 154.734 52.6116 163.907 63.8888 170.368C75.1566 176.83 87.8832 180.056 102.069 180.056C116.254 180.056 128.597 176.83 139.874 170.368Z" fill="#151515"/>
</svg>
