<svg width="185" height="279" viewBox="0 0 185 279" fill="none" xmlns="http://www.w3.org/2000/svg">
<path d="M0.570801 78.2578H27.5482V237.064L160.902 78.2578H184.84V278.096H157.862V119.29L24.8925 278.096H0.580161V78.2578H0.570801ZM50.3364 36.4685C40.2 27.8564 35.0102 15.7002 34.7577 0H54.1328C54.3853 9.87456 57.9293 17.7948 64.7742 23.742C71.6097 29.6985 80.4744 32.6721 91.3682 32.6721C102.262 32.6721 111.183 29.6985 118.149 23.742C125.116 17.7948 128.725 9.87456 128.977 0H148.353C148.1 15.7095 142.845 27.8657 132.587 36.4685C122.329 45.0807 108.583 49.3822 91.3682 49.3822C74.1531 49.3822 60.4634 45.0807 50.3364 36.4685Z" fill="#151515"/>
</svg>
