<svg width="64" height="23" viewBox="0 0 64 23" fill="none" xmlns="http://www.w3.org/2000/svg">
<rect width="64" height="23" fill="#C4C4C4"/>
<g id="Desktop - 3" clip-path="url(#clip0_0_1)">
<rect width="1440" height="7359" transform="translate(-48 -45)" fill="#EEEEEE"/>
<g id="Group 14">
<path id="Vector" d="M1.65496 21.1171C0.55188 20.3217 0 19.189 0 17.7203C0 16.7412 0.248448 15.9662 0.744665 15.3946C1.24088 14.8237 1.83824 14.4057 2.53743 14.1398C3.23593 13.8747 4.16456 13.6096 5.3233 13.3445C6.26076 13.12 7.00542 12.9159 7.5573 12.7321C8.1085 12.5484 8.56806 12.2735 8.93598 11.9059C9.3039 11.5384 9.48719 11.0488 9.48719 10.4373C9.48719 9.56058 9.16067 8.88726 8.50833 8.41804C7.8553 7.94882 6.9226 7.71384 5.70887 7.71384C4.89972 7.71384 4.08174 7.85167 3.25426 8.12732C2.42678 8.40298 1.70044 8.7547 1.07525 9.18325L0.38557 7.53082C1.12073 7.04127 1.96179 6.6436 2.90942 6.33706C3.85638 6.03128 4.79858 5.87839 5.73603 5.87839C7.50096 5.87839 8.90272 6.28133 9.94199 7.08721C10.9806 7.89309 11.5006 9.0409 11.5006 10.5299C11.5006 11.5293 11.2474 12.3254 10.7423 12.9167C10.2366 13.5086 9.62566 13.9372 8.90815 14.2016C8.19132 14.4667 7.25319 14.7325 6.09512 14.9969C5.15767 15.201 4.41708 15.3998 3.8747 15.5934C3.33233 15.7877 2.88159 16.0573 2.52317 16.4045C2.16476 16.7518 1.98555 17.221 1.98555 17.8122C1.98555 18.6693 2.34396 19.3268 3.06148 19.7862C3.77831 20.2449 4.7531 20.4746 5.98515 20.4746C7.03325 20.4746 8.02161 20.3014 8.95024 19.9542C9.87819 19.6077 10.6921 19.1792 11.3913 18.6693L12.1081 20.2298C11.3173 20.8625 10.3887 21.3671 9.32223 21.7444C8.25581 22.1225 7.14322 22.3108 5.98515 22.3108C4.20122 22.3108 2.75804 21.9132 1.65496 21.1178V21.1171Z" fill="#151515"/>
<path id="Vector_2" d="M30.2703 5.99935V22.1566H28.284V18.9623C27.6608 20.048 26.8383 20.8774 25.8161 21.4505C24.7938 22.0243 23.64 22.3108 22.3546 22.3108C20.9133 22.3108 19.6092 21.963 18.441 21.2667C17.2728 20.5704 16.3569 19.5982 15.6955 18.3484C15.0334 17.0995 14.7028 15.6759 14.7028 14.0791C14.7028 12.4824 15.0334 11.0587 15.6955 9.80977C16.3576 8.5608 17.2728 7.59308 18.441 6.90735C19.6092 6.22163 20.914 5.87839 22.3546 5.87839C23.6005 5.87839 24.7248 6.1498 25.7284 6.69264C26.7312 7.23547 27.5536 8.02855 28.1963 9.07339V6.00162H30.2703V5.99935ZM25.4365 19.5914C26.3028 19.0689 26.9843 18.3273 27.481 17.3641C27.9778 16.4016 28.2258 15.3062 28.2258 14.0776C28.2258 12.849 27.9778 11.7535 27.481 10.7911C26.9843 9.82867 26.3028 9.08625 25.4365 8.56383C24.5695 8.04141 23.6012 7.78057 22.53 7.78057C21.4589 7.78057 20.4611 8.04141 19.5948 8.56383C18.7278 9.08625 18.047 9.82867 17.5503 10.7911C17.0535 11.7535 16.8055 12.849 16.8055 14.0776C16.8055 15.3062 17.0535 16.4024 17.5503 17.3641C18.047 18.3273 18.7278 19.0689 19.5948 19.5914C20.4611 20.1138 21.4395 20.3746 22.53 20.3746C23.6206 20.3746 24.5695 20.1138 25.4365 19.5914Z" fill="#151515"/>
<path id="Vector_3" d="M33.7297 6.77364H35.8822V19.1206L46.5224 6.77364H48.4324V22.3108H46.2799V9.96381L35.6704 22.3108H33.7305V6.77364H33.7297ZM37.7005 3.52458C36.8917 2.85499 36.4776 1.90986 36.4575 0.689194H38.0034C38.0236 1.45693 38.3063 2.07272 38.8525 2.5351C39.3979 2.99821 40.1052 3.22941 40.9744 3.22941C41.8436 3.22941 42.5554 2.99821 43.1112 2.5351C43.6671 2.07272 43.9551 1.45693 43.9752 0.689194H45.5211C45.501 1.91059 45.0817 2.85572 44.2632 3.52458C43.4447 4.19416 42.348 4.52859 40.9744 4.52859C39.6008 4.52859 38.5085 4.19416 37.7005 3.52458Z" fill="#151515"/>
<path id="Vector_4" d="M63.1089 15.1331C63.7029 15.7849 64 16.5795 64 17.5154C64 18.4514 63.6929 19.2865 63.0794 20.0202C62.466 20.7532 61.6332 21.3185 60.581 21.7154C59.5289 22.1124 58.3696 22.3108 57.1039 22.3108C55.9935 22.3108 54.9025 22.1432 53.8317 21.8071C52.7602 21.4711 51.8252 20.978 51.027 20.3255L51.7282 18.7069C52.4293 19.2565 53.2478 19.6842 54.1827 19.9894C55.1176 20.2946 56.0626 20.4472 57.0169 20.4472C58.4387 20.4472 59.603 20.1676 60.5084 19.6075C61.4138 19.0475 61.8669 18.2897 61.8669 17.332C61.8669 16.4765 61.4965 15.8105 60.7565 15.3316C60.0158 14.8535 59.0032 14.6137 57.7181 14.6137H55.0881V13.0252H57.6008C58.7501 13.0252 59.6756 12.796 60.3768 12.3381C61.078 11.8803 61.4289 11.2647 61.4289 10.4904C61.4289 9.63487 61.0348 8.96356 60.2452 8.47492C59.4563 7.98629 58.4286 7.74197 57.1629 7.74197C55.5066 7.74197 53.8705 8.18024 52.2539 9.05527L51.6692 7.37512C53.5002 6.37755 55.3995 5.87839 57.3671 5.87839C58.5358 5.87839 59.5922 6.05655 60.5372 6.41288C61.4814 6.76921 62.2215 7.27363 62.758 7.92464C63.2937 8.57641 63.5613 9.32966 63.5613 10.1851C63.5613 11.0406 63.293 11.7225 62.758 12.3539C62.2222 12.9854 61.4965 13.4537 60.581 13.7589C61.672 14.0236 62.5142 14.4821 63.1082 15.1331H63.1089Z" fill="#151515"/>
</g>
</g>
<defs>
<clipPath id="clip0_0_1">
<rect width="1440" height="7359" fill="white" transform="translate(-48 -45)"/>
</clipPath>
</defs>
</svg>
